<svg width="61" height="61" viewBox="0 0 61 61" fill="none" xmlns="http://www.w3.org/2000/svg">
<circle cx="30.5" cy="30.5" r="30.5" fill="#0D1128"/>
<path d="M16.6464 36.5006C16.4512 36.6959 16.4512 37.0125 16.6464 37.2077L19.8284 40.3897C20.0237 40.585 20.3403 40.585 20.5355 40.3897C20.7308 40.1944 20.7308 39.8779 20.5355 39.6826L17.7071 36.8542L20.5355 34.0257C20.7308 33.8305 20.7308 33.5139 20.5355 33.3186C20.3403 33.1234 20.0237 33.1234 19.8284 33.3186L16.6464 36.5006ZM17 37.3542H43.6875V36.3542H17V37.3542Z" fill="white"/>
<path d="M44.0411 23.2286C44.2363 23.0333 44.2363 22.7167 44.0411 22.5214L40.8591 19.3395C40.6638 19.1442 40.3472 19.1442 40.152 19.3395C39.9567 19.5347 39.9567 19.8513 40.152 20.0466L42.9804 22.875L40.152 25.7034C39.9567 25.8987 39.9567 26.2153 40.152 26.4105C40.3472 26.6058 40.6638 26.6058 40.8591 26.4105L44.0411 23.2286ZM17 23.375H43.6875V22.375H17V23.375Z" fill="#2EC850"/>
</svg>
